<svg xmlns="http://www.w3.org/2000/svg" viewBox="0 0 1600 1000" role="img" aria-labelledby="title desc">
  <title id="title">Semiconductor leverage stress map</title>
  <desc id="desc">A stylized semiconductor board with volatility lines and stress points.</desc>
  <defs>
    <linearGradient id="board" x1="0" x2="1" y1="0" y2="1">
      <stop offset="0" stop-color="#1f4f45"/>
      <stop offset="0.48" stop-color="#1a2d31"/>
      <stop offset="1" stop-color="#591f23"/>
    </linearGradient>
    <filter id="soft">
      <feGaussianBlur stdDeviation="8"/>
    </filter>
  </defs>
  <rect width="1600" height="1000" fill="url(#board)"/>
  <g opacity="0.34" stroke="#f5d48c" stroke-width="3" fill="none">
    <path d="M0 190h290c60 0 80 60 140 60h220c70 0 82-80 150-80h800"/>
    <path d="M0 720h260c90 0 96-150 190-150h280c88 0 98 110 176 110h694"/>
    <path d="M230 0v250c0 76 92 88 92 160v590"/>
    <path d="M1180 0v310c0 74-120 80-120 152v538"/>
    <path d="M0 470h1600"/>
  </g>
  <g transform="translate(590 285)">
    <rect x="0" y="0" width="420" height="420" rx="30" fill="#101818" stroke="#f6c85f" stroke-width="12"/>
    <rect x="58" y="58" width="304" height="304" rx="18" fill="#25443e" stroke="#d5cab8" stroke-width="5"/>
    <g stroke="#d5cab8" stroke-width="8">
      <path d="M-70 60H0M-70 130H0M-70 200H0M-70 270H0M-70 340H0"/>
      <path d="M420 60h70M420 130h70M420 200h70M420 270h70M420 340h70"/>
      <path d="M60-70V0M130-70V0M200-70V0M270-70V0M340-70V0"/>
      <path d="M60 420v70M130 420v70M200 420v70M270 420v70M340 420v70"/>
    </g>
    <path d="M80 245c56-115 128-132 184-84 38 33 45 82 78 106" fill="none" stroke="#c74432" stroke-width="18" stroke-linecap="round"/>
    <path d="M84 252h250" fill="none" stroke="#f6c85f" stroke-width="5" stroke-dasharray="16 14"/>
  </g>
  <g fill="#c74432" filter="url(#soft)" opacity="0.58">
    <circle cx="420" cy="240" r="58"/>
    <circle cx="1130" cy="300" r="78"/>
    <circle cx="1010" cy="760" r="70"/>
    <circle cx="520" cy="760" r="44"/>
  </g>
  <g fill="#f6c85f" opacity="0.82">
    <circle cx="420" cy="240" r="9"/>
    <circle cx="1130" cy="300" r="10"/>
    <circle cx="1010" cy="760" r="10"/>
    <circle cx="520" cy="760" r="8"/>
  </g>
</svg>
